<svg xmlns="http://www.w3.org/2000/svg" viewBox="0 0 1200 720" fill="none">
  <defs>
    <linearGradient id="bg" x1="0" y1="0" x2="1200" y2="720" gradientUnits="userSpaceOnUse">
      <stop stop-color="#020617"/>
      <stop offset="1" stop-color="#0f172a"/>
    </linearGradient>
    <linearGradient id="line" x1="170" y1="135" x2="1035" y2="590" gradientUnits="userSpaceOnUse">
      <stop stop-color="#38bdf8"/>
      <stop offset="1" stop-color="#f97316"/>
    </linearGradient>
    <linearGradient id="card" x1="430" y1="120" x2="770" y2="530" gradientUnits="userSpaceOnUse">
      <stop stop-color="#0f172a" stop-opacity="0.94"/>
      <stop offset="1" stop-color="#111827" stop-opacity="0.82"/>
    </linearGradient>
  </defs>
  <rect width="1200" height="720" rx="36" fill="url(#bg)"/>
  <circle cx="164" cy="130" r="160" fill="#38bdf8" fill-opacity="0.12"/>
  <circle cx="1030" cy="560" r="220" fill="#f97316" fill-opacity="0.10"/>
  <rect x="124" y="106" width="952" height="508" rx="30" fill="url(#card)" stroke="#334155" stroke-opacity="0.9"/>

  <path d="M222 190H978" stroke="#334155" stroke-width="2" stroke-dasharray="10 10" opacity="0.8"/>
  <path d="M222 330H978" stroke="#334155" stroke-width="2" stroke-dasharray="10 10" opacity="0.8"/>
  <path d="M222 470H978" stroke="#334155" stroke-width="2" stroke-dasharray="10 10" opacity="0.8"/>
  <path d="M360 142V570" stroke="#334155" stroke-width="2" stroke-dasharray="10 10" opacity="0.8"/>
  <path d="M630 142V570" stroke="#334155" stroke-width="2" stroke-dasharray="10 10" opacity="0.8"/>
  <path d="M900 142V570" stroke="#334155" stroke-width="2" stroke-dasharray="10 10" opacity="0.8"/>

  <text x="160" y="160" fill="#e2e8f0" font-family="Inter,Segoe UI,Arial" font-size="22" font-weight="700">cKd-tree / KNN</text>
  <text x="160" y="190" fill="#94a3b8" font-family="Inter,Segoe UI,Arial" font-size="15">Estructura compacta y consultas de proximidad</text>

  <g filter="url(#shadow)">
    <circle cx="360" cy="190" r="18" fill="#7dd3fc"/>
    <circle cx="360" cy="330" r="18" fill="#7dd3fc"/>
    <circle cx="360" cy="470" r="18" fill="#7dd3fc"/>
    <circle cx="630" cy="190" r="18" fill="#f97316"/>
    <circle cx="630" cy="330" r="18" fill="#f97316"/>
    <circle cx="630" cy="470" r="18" fill="#f97316"/>
    <circle cx="900" cy="190" r="18" fill="#7dd3fc"/>
    <circle cx="900" cy="330" r="18" fill="#f97316"/>
    <circle cx="900" cy="470" r="18" fill="#7dd3fc"/>
  </g>

  <path d="M360 190C430 190 500 190 630 190" stroke="url(#line)" stroke-width="6" stroke-linecap="round"/>
  <path d="M360 330C430 330 500 330 630 330" stroke="url(#line)" stroke-width="6" stroke-linecap="round"/>
  <path d="M360 470C430 470 500 470 630 470" stroke="url(#line)" stroke-width="6" stroke-linecap="round"/>
  <path d="M630 190C710 190 790 190 900 190" stroke="url(#line)" stroke-width="6" stroke-linecap="round"/>
  <path d="M630 330C710 330 790 330 900 330" stroke="url(#line)" stroke-width="6" stroke-linecap="round"/>
  <path d="M630 470C710 470 790 470 900 470" stroke="url(#line)" stroke-width="6" stroke-linecap="round"/>

  <rect x="180" y="520" width="235" height="54" rx="18" fill="#0f172a" stroke="#38bdf8" stroke-opacity="0.35"/>
  <text x="200" y="553" fill="#cbd5e1" font-family="Inter,Segoe UI,Arial" font-size="16">Puntos de consulta</text>
  <rect x="485" y="520" width="235" height="54" rx="18" fill="#0f172a" stroke="#f97316" stroke-opacity="0.35"/>
  <text x="516" y="553" fill="#cbd5e1" font-family="Inter,Segoe UI,Arial" font-size="16">Nodos compactos</text>
  <rect x="790" y="520" width="235" height="54" rx="18" fill="#0f172a" stroke="#7dd3fc" stroke-opacity="0.35"/>
  <text x="824" y="553" fill="#cbd5e1" font-family="Inter,Segoe UI,Arial" font-size="16">Vecinos más cercanos</text>

  <defs>
    <filter id="shadow" x="0" y="0" width="1200" height="720" filterUnits="userSpaceOnUse">
      <feDropShadow dx="0" dy="10" stdDeviation="18" flood-color="#38bdf8" flood-opacity="0.16"/>
    </filter>
  </defs>
</svg>