<svg xmlns="http://www.w3.org/2000/svg" viewBox="0 0 680 420" fill="none">
  <defs>
    <linearGradient id="bg" x1="0" y1="0" x2="680" y2="420" gradientUnits="userSpaceOnUse">
      <stop stop-color="#ffffff"/>
      <stop offset="1" stop-color="#f8fafc"/>
    </linearGradient>
  </defs>
  <rect width="680" height="420" rx="24" fill="url(#bg)"/>
  <rect x="86" y="20" width="520" height="360" rx="2" fill="#ffffff" stroke="#1f2937" stroke-width="1.2"/>

  <path d="M86 343H606" stroke="#cbd5e1" stroke-width="1.2"/>
  <path d="M86 292H606" stroke="#cbd5e1" stroke-width="1.2" stroke-dasharray="5 5"/>
  <path d="M86 240H606" stroke="#cbd5e1" stroke-width="1.2" stroke-dasharray="5 5"/>
  <path d="M86 188H606" stroke="#cbd5e1" stroke-width="1.2" stroke-dasharray="5 5"/>
  <path d="M86 137H606" stroke="#cbd5e1" stroke-width="1.2" stroke-dasharray="5 5"/>
  <path d="M86 85H606" stroke="#cbd5e1" stroke-width="1.2" stroke-dasharray="5 5"/>
  <path d="M86 33H606" stroke="#cbd5e1" stroke-width="1.2" stroke-dasharray="5 5"/>

  <path d="M145 20V380" stroke="#cbd5e1" stroke-width="1.2" stroke-dasharray="5 5"/>
  <path d="M225 20V380" stroke="#cbd5e1" stroke-width="1.2" stroke-dasharray="5 5"/>
  <path d="M305 20V380" stroke="#cbd5e1" stroke-width="1.2" stroke-dasharray="5 5"/>
  <path d="M385 20V380" stroke="#cbd5e1" stroke-width="1.2" stroke-dasharray="5 5"/>
  <path d="M465 20V380" stroke="#cbd5e1" stroke-width="1.2" stroke-dasharray="5 5"/>
  <path d="M545 20V380" stroke="#cbd5e1" stroke-width="1.2" stroke-dasharray="5 5"/>

  <text x="100" y="18" fill="#111827" font-family="Arial,Segoe UI,sans-serif" font-size="18" font-weight="700">R</text>
  <text x="240" y="245" fill="#111827" font-family="Arial,Segoe UI,sans-serif" font-size="18" font-weight="700">qR</text>

  <rect x="203" y="223" width="340" height="88" rx="0" fill="none" stroke="#93c5fd" stroke-width="2"/>

  <circle cx="145" cy="86" r="5" fill="#111827"/>
  <circle cx="145" cy="239" r="5" fill="#111827"/>
  <circle cx="225" cy="188" r="5" fill="#111827"/>
  <circle cx="305" cy="292" r="5" fill="#111827"/>
  <circle cx="385" cy="240" r="5" fill="#111827"/>
  <circle cx="545" cy="188" r="5" fill="#111827"/>

  <circle cx="225" cy="86" r="5" fill="#111827"/>
  <circle cx="385" cy="292" r="5" fill="#111827"/>
  <circle cx="465" cy="292" r="5" fill="#111827"/>

  <text x="157" y="82" fill="#111827" font-family="Arial,Segoe UI,sans-serif" font-size="14">p5</text>
  <text x="157" y="246" fill="#111827" font-family="Arial,Segoe UI,sans-serif" font-size="14">p7</text>
  <text x="237" y="184" fill="#111827" font-family="Arial,Segoe UI,sans-serif" font-size="14">p2</text>
  <text x="317" y="288" fill="#111827" font-family="Arial,Segoe UI,sans-serif" font-size="14">p6</text>
  <text x="397" y="236" fill="#111827" font-family="Arial,Segoe UI,sans-serif" font-size="14">p1</text>
  <text x="557" y="184" fill="#111827" font-family="Arial,Segoe UI,sans-serif" font-size="14">p4</text>
  <text x="237" y="82" fill="#111827" font-family="Arial,Segoe UI,sans-serif" font-size="14">p8</text>
  <text x="397" y="288" fill="#111827" font-family="Arial,Segoe UI,sans-serif" font-size="14">p3</text>
  <text x="477" y="288" fill="#111827" font-family="Arial,Segoe UI,sans-serif" font-size="14">p9</text>

  <text x="102" y="394" fill="#475569" font-family="Arial,Segoe UI,sans-serif" font-size="12">Ejemplo de consulta de rango sobre puntos en 2D</text>
</svg>